<?xml version="1.0" encoding="UTF-8" standalone="no"?>
<svg
   xmlns:dc="http://purl.org/dc/elements/1.1/"
   xmlns:cc="http://creativecommons.org/ns#"
   xmlns:rdf="http://www.w3.org/1999/02/22-rdf-syntax-ns#"
   xmlns:svg="http://www.w3.org/2000/svg"
   xmlns="http://www.w3.org/2000/svg"
   viewBox="0 0 793.92706 1122.5195"
   height="150.97887275"
   width="106.78318957"
   xml:space="preserve"
   id="svg2"
   version="1.1"><metadata
     id="metadata8"><rdf:RDF><cc:Work
         rdf:about=""><dc:format>image/svg+xml</dc:format><dc:type
           rdf:resource="http://purl.org/dc/dcmitype/StillImage" /></cc:Work></rdf:RDF></metadata><defs
     id="defs6" /><g
     transform="matrix(1.3333333,0,0,-1.3333333,0,1122.5195)"
     id="g10"><path
       id="path12"
       style="fill:#231f20;fill-opacity:1;fill-rule:evenodd;stroke:none"
       d="m 142.48682,579.49023 c 0,-2.10449 0.0415,-3.99902 -1.51514,-5.59814 -1.72559,-1.72607 -4.41992,-2.27295 -6.81934,-2.27295 -2.31494,0 -5.51367,0.58887 -6.81836,2.73584 -0.96875,1.55713 -0.88427,4.6294 -0.88427,6.48193 v 11.86963 c 0,2.65186 -0.21045,3.45166 2.73633,3.45166 0.37841,0 1.09423,0 1.09423,0.54737 0,0.46289 -0.33691,0.58935 -0.71582,0.58935 -1.59961,0 -3.19922,-0.16797 -4.79882,-0.16797 -1.59864,0 -3.11426,0.16797 -4.71387,0.16797 -0.4209,0 -0.71533,-0.12646 -0.71533,-0.58935 0,-0.54737 0.67334,-0.54737 1.05224,-0.54737 2.94629,0 2.73584,-0.7998 2.73584,-3.45166 v -13.21631 c 0,-2.77832 -0.0415,-5.17675 2.48389,-6.9873 2.104,-1.47314 5.34473,-1.93604 7.82861,-1.93604 2.77783,0 5.80908,0.42139 7.91309,2.22999 2.27295,1.97949 2.31494,3.99902 2.31494,6.69335 v 13.13184 c 0,1.93652 -0.21094,3.53613 2.18848,3.53613 0.37988,0 1.34716,0 1.34716,0.58887 0,0.50586 -0.54736,0.54785 -0.88427,0.54785 -1.09375,0 -2.18848,-0.16797 -3.28223,-0.16797 -1.2627,0 -2.52539,0.16797 -3.78809,0.16797 -0.42138,0 -0.88427,-0.12646 -0.88427,-0.58935 0,-0.58936 0.75732,-0.54737 1.13623,-0.54737 0.96777,0 2.0205,-0.042 2.52588,-0.96777 0.50439,-0.84277 0.46289,-3.15723 0.46289,-4.16797 z" /><path
       id="path14"
       style="fill:#231f20;fill-opacity:1;fill-rule:evenodd;stroke:none"
       d="m 149.98096,575.36523 c 0,-1.81005 0.37939,-3.24121 -1.89405,-3.45117 -0.46289,-0.043 -1.17871,0.0415 -1.17871,-0.58984 0,-0.33594 0.29541,-0.4209 0.58985,-0.4209 1.30468,0 2.65136,0.16797 3.99804,0.16797 1.2627,0 2.60987,-0.16797 3.95704,-0.16797 0.29492,0 0.50488,0.12647 0.50488,0.46338 0,0.54736 -0.75684,0.50439 -1.17822,0.54736 -2.27295,0.20996 -1.89405,1.64112 -1.89405,3.45117 v 7.07129 c 0,1.6836 0.12598,2.60938 1.34668,3.87207 1.09473,1.13672 2.56738,1.81006 4.16699,1.81006 1.64161,0 3.15674,-0.67334 3.95655,-1.89404 0.7583,-1.13574 0.7583,-2.81982 0.7583,-4.16699 v -6.69239 c 0,-1.81005 0.37842,-3.24121 -1.89453,-3.45117 -0.46289,-0.043 -1.17871,0.0415 -1.17871,-0.58984 0,-0.33594 0.29492,-0.4209 0.58935,-0.4209 1.30518,0 2.65186,0.16797 3.99902,0.16797 1.2627,0 2.60987,-0.16797 3.95655,-0.16797 0.29443,0 0.50488,0.12647 0.50488,0.46338 0,0.54736 -0.75781,0.50439 -1.17871,0.54736 -2.27246,0.20996 -1.89404,1.64112 -1.89404,3.45117 v 6.6504 c 0,2.0205 0.0845,4.083 -1.2627,5.80859 -1.17822,1.51562 -2.8623,2.27246 -4.96631,2.27246 -3.83105,0 -6.1875,-3.45117 -6.90332,-3.45117 v 2.77832 c 0,0.29443 0.042,0.67285 -0.3789,0.67285 -0.33692,0 -0.54786,-0.33691 -0.75782,-0.54688 -0.67285,-0.7998 -2.48339,-1.89404 -3.49365,-2.18847 -0.37842,-0.12695 -0.96826,-0.20996 -0.96826,-0.71582 0,-0.25244 0.25293,-0.33692 0.50537,-0.33692 h 0.54736 c 0.33692,0 0.96778,-0.042 1.22071,-0.33691 0.46289,-0.46289 0.42041,-2.104 0.42041,-2.69336 z" /><path
       id="path16"
       style="fill:#231f20;fill-opacity:1;fill-rule:evenodd;stroke:none"
       d="m 177.20947,589.42383 c 0,0.29443 0.0415,0.67285 -0.37842,0.67285 -0.33691,0 -0.54736,-0.33691 -0.7583,-0.54688 -0.67334,-0.7998 -2.48291,-1.89404 -3.49365,-2.18847 -0.3789,-0.12695 -0.96826,-0.20996 -0.96826,-0.71582 0,-0.25244 0.25244,-0.33692 0.50537,-0.33692 h 0.54688 c 0.33691,0 0.96875,-0.042 1.22119,-0.33691 0.46289,-0.46289 0.42041,-2.104 0.42041,-2.69336 v -7.91309 c 0,-1.81005 0.37939,-3.24121 -1.89405,-3.45117 -0.46289,-0.043 -1.17822,0.0415 -1.17822,-0.58984 0,-0.33594 0.29492,-0.4209 0.58936,-0.4209 1.3042,0 2.65136,0.16797 3.99853,0.16797 1.2627,0 2.60938,-0.16797 3.95606,-0.16797 0.29541,0 0.50586,0.12647 0.50586,0.46338 0,0.54736 -0.75782,0.50439 -1.17871,0.54736 -2.27247,0.20996 -1.89405,1.64112 -1.89405,3.45117 v 14.0586 m -1.47363,4.33496 c 1.22119,0 1.85205,0.96875 1.85205,2.10547 0,1.00976 -0.67285,2.01953 -1.76758,2.01953 -1.13623,0 -1.89453,-1.00977 -1.89453,-2.10449 0,-1.09473 0.67383,-2.02051 1.81006,-2.02051 z" /><path
       id="path18"
       style="fill:#231f20;fill-opacity:1;fill-rule:evenodd;stroke:none"
       d="m 191.55615,574.90234 -4.29345,10.52246 c -0.21094,0.50538 -0.67383,1.55762 -0.67383,2.1045 0,0.7998 0.7998,1.17871 1.55713,1.17871 0.29541,0 1.1792,-0.12598 1.1792,0.3789 0,0.50489 -0.4209,0.46289 -0.79981,0.46289 h -7.61865 c -0.33692,0 -0.63135,0.042 -0.63135,-0.3789 0,-0.46289 0.46289,-0.46289 0.79981,-0.46289 1.76757,-0.084 1.97851,-0.88379 2.60937,-2.44141 l 6.10352,-14.73242 0.25293,-0.5459 c 0.0415,-0.16894 0.16748,-0.42139 0.37841,-0.42139 0.33692,0 0.63135,0.84131 0.71534,0.96729 l 6.01953,13.04883 c 0.71533,1.55762 1.47265,3.87256 3.45117,4.125 0.33691,0.042 1.05224,0.042 1.05224,0.54736 0,0.37842 -0.21044,0.29443 -0.54736,0.29443 h -6.1875 c -0.33691,0 -0.63086,0 -0.63086,-0.3789 0,-0.46289 0.75684,-0.46289 1.13672,-0.46289 0.75684,0 1.64111,-0.29395 1.64111,-1.13672 0,-0.50488 -0.33691,-1.34668 -0.54736,-1.80957 z" /><path
       id="path20"
       style="fill:#231f20;fill-opacity:1;fill-rule:evenodd;stroke:none"
       d="m 217.6582,582.52051 c 0.42041,0 0.50489,0.3789 0.50489,0.71582 0,1.38867 -0.63184,3.19824 -1.47315,4.25097 -1.47363,1.80958 -3.78808,2.60938 -6.06152,2.60938 -2.86182,0 -5.47119,-0.96777 -7.57617,-2.81934 -2.23096,-1.93652 -3.03077,-4.16796 -3.03077,-7.03027 0,-5.26074 4.08301,-9.68018 9.59668,-9.68018 2.60987,0 4.67237,0.67334 6.65039,2.35694 0.29541,0.25293 1.64161,1.38965 1.64161,1.89404 0,0.16846 -0.12598,0.33692 -0.33594,0.33692 -0.54736,0 -2.10547,-2.73584 -6.23047,-2.73584 -5.09229,0 -8.16553,4.083 -8.16553,8.79687 0,1.38916 0.42139,1.30469 1.72608,1.30469 h 12.7539 m -12.71191,1.01025 c -0.46289,0 -1.43115,-0.12597 -1.43115,0.54737 0,0.67382 0.71533,1.97802 1.05224,2.4414 1.30469,1.76758 3.3252,2.82031 5.47217,2.82031 1.34717,0 2.73584,-0.33691 3.66211,-1.30566 0.58887,-0.63086 1.09424,-1.59961 1.09424,-2.48242 0,-1.01074 -0.63135,-1.47363 -1.55713,-1.68408 -1.22119,-0.29541 -3.57764,-0.33692 -4.8833,-0.33692 z" /><path
       id="path22"
       style="fill:#231f20;fill-opacity:1;fill-rule:evenodd;stroke:none"
       d="m 222.37793,575.36523 c 0,-1.81005 0.37891,-3.24121 -1.89404,-3.45117 -0.46289,-0.043 -1.17823,0.0415 -1.17823,-0.58984 0,-0.33594 0.29395,-0.4209 0.58887,-0.4209 1.30469,0 2.65186,0.16797 3.99902,0.16797 1.2627,0 2.60938,-0.16797 3.95606,-0.16797 0.29492,0 0.50488,0.12647 0.50488,0.46338 0,0.54736 -0.75732,0.50439 -1.17871,0.54736 -2.27246,0.20996 -1.89355,1.64112 -1.89355,3.45117 v 6.6504 c 0,1.68359 -0.0845,2.77783 0.96777,4.20898 0.46289,0.63135 1.22119,1.51562 2.14697,1.51562 1.17823,0 1.2627,-1.5996 2.69385,-1.5996 1.00977,0 1.76807,0.63085 1.76807,1.68359 0,1.26269 -1.13672,2.02051 -2.39942,2.02051 -2.90478,0 -4.54638,-3.36719 -4.96728,-3.36719 -0.29444,0 -0.20996,0.71533 -0.20996,0.88379 v 2.0625 c 0,0.29443 0.042,0.67285 -0.37891,0.67285 -0.33691,0 -0.54687,-0.33691 -0.75732,-0.54688 -0.67383,-0.7998 -2.48389,-1.89404 -3.49366,-2.18847 -0.37939,-0.12695 -0.96826,-0.20996 -0.96826,-0.71582 0,-0.25244 0.25244,-0.33692 0.50537,-0.33692 h 0.54688 c 0.33642,0 0.96777,-0.042 1.2207,-0.33691 0.46289,-0.46289 0.4209,-2.104 0.4209,-2.69336 z" /><path
       id="path24"
       style="fill:#231f20;fill-opacity:1;fill-rule:evenodd;stroke:none"
       d="m 249.98633,588.03418 c 0.16894,0.21094 0.67383,0.88428 0.67383,1.22119 0,0.37842 -0.50489,0.29443 -0.75782,0.29443 h -10.27002 c -1.05224,0 -2.14697,-0.084 -2.14697,1.22071 0,0.29492 -0.042,0.67334 -0.4209,0.67334 -0.42041,0 -0.67285,-0.92578 -0.75732,-1.17822 l -1.09424,-3.19922 c -0.0425,-0.12598 -0.29492,-0.79981 -0.29492,-0.96778 0,-0.20996 0.16797,-0.33691 0.37842,-0.33691 0.33691,0 0.54785,0.4209 0.71631,0.67285 0.46289,0.67383 1.34619,1.38965 2.10449,1.72656 1.00976,0.46289 2.31494,0.33594 3.3667,0.33594 h 4.20947 c 0.21094,0 0.71533,0 0.71533,-0.29394 0,-0.25196 -0.37842,-0.75782 -0.50439,-0.92579 l -11.19678,-14.8164 c -0.0845,-0.16846 -0.58936,-0.71582 -0.58936,-0.96826 0,-0.63135 1.17823,-0.42139 1.51514,-0.42139 h 14.31152 c 0.84131,-0.083 0.63135,0.96875 0.63135,1.47363 l 0.084,2.0625 c 0,0.29492 0.21045,1.59961 -0.37891,1.59961 -0.4209,0 -0.50488,-0.54785 -0.58887,-0.8418 -0.42138,-1.09472 -0.84179,-2.10449 -1.89453,-2.69433 -1.09472,-0.58887 -2.94629,-0.63086 -4.20898,-0.63086 h -3.66211 c -0.16846,0 -1.47266,-0.0845 -1.47266,0.33691 0,0.29395 0.5044,0.88379 0.67285,1.05176 l 10.85938,14.60547 z" /><path
       id="path26"
       style="fill:#231f20;fill-opacity:1;fill-rule:evenodd;stroke:none"
       d="m 259.37598,579.78418 c -2.35645,-1.09375 -6.22901,-2.90381 -6.22901,-5.89209 0,-2.104 1.97803,-3.3252 3.95655,-3.3252 3.66211,0 6.39746,3.19874 6.77636,3.19874 0.58985,0 0.79981,-2.94629 2.86231,-2.94629 1.09424,0 2.14648,0.63183 2.98828,1.2207 0.29492,0.25244 1.01074,0.8418 1.01074,1.30469 0,0.16894 -0.12695,0.33691 -0.29492,0.33691 -0.37891,0 -0.8418,-1.05225 -1.89453,-1.05225 -1.51514,0 -1.47266,2.44092 -1.47266,3.3667 v 9.93409 c 0,1.13623 0.16846,2.18847 -0.8418,3.07275 -0.96777,0.8418 -2.52587,1.09375 -3.83007,1.09375 -2.69434,0 -5.55664,-1.13672 -7.53467,-2.90381 -0.79981,-0.67334 -1.76807,-1.89404 -1.76807,-2.98877 0,-0.4209 0.21094,-0.50488 0.54688,-0.50488 0.50586,0 1.38965,0.33691 1.81054,0.54687 0.67334,0.29493 0.88379,0.88428 1.17872,1.51563 0.96826,2.14648 2.27246,3.53516 4.84082,3.53516 2.60937,0 2.69335,-1.72559 2.69335,-3.78809 v -1.85156 c 0,-1.59961 -0.042,-1.6416 -1.55761,-2.35743 l -3.24121,-1.51562 m 4.04101,1.09473 c 0.12696,0.042 0.33692,0.16797 0.46289,0.16797 0.4209,0 0.29492,-1.00977 0.29492,-1.17774 v -2.52588 c 0,-1.38867 -0.042,-2.104 -1.05224,-3.15674 -1.01026,-1.00976 -2.44092,-1.68359 -3.91455,-1.68359 -1.55762,0 -2.9043,0.8418 -2.9043,2.4834 0,2.02051 1.6416,3.11523 3.28272,3.95654 z" /><path
       id="path28"
       style="fill:#231f20;fill-opacity:1;fill-rule:evenodd;stroke:none"
       d="m 294.94336,585.80371 c 0.37939,0.96777 0.7998,1.97852 0.7998,3.03027 0,0.96875 -0.50488,1.51563 -1.47265,1.51563 -1.09473,0 -2.44141,-0.88379 -3.28369,-1.51563 -1.34717,-1.00976 -2.0625,-1.72558 -3.03077,-3.07226 -0.12597,-0.20996 -0.54687,-0.75781 -0.54687,-1.00977 0,-0.16894 0.084,-0.33691 0.25244,-0.33691 0.21094,0 0.42139,0.25244 0.50537,0.37842 0.54688,0.84131 2.81983,3.49365 3.87207,3.49365 0.37891,0 0.58985,-0.25293 0.58985,-0.63135 0,-0.46289 -0.46387,-1.43115 -0.63135,-1.85205 l -3.03076,-7.49219 c -0.4209,-1.05273 -1.17871,-3.03076 -1.17871,-4.125 0,-2.60937 1.38867,-3.61963 3.83007,-3.61963 6.90332,0 13.97461,10.90137 13.97461,17.17334 0,1.00977 -0.42187,3.03028 -1.72558,3.03028 -0.88477,0 -1.43164,-1.09375 -1.43164,-1.85205 0,-0.84131 0.37988,-1.43116 0.80078,-2.0625 0.3789,-0.58936 0.50488,-1.01026 0.50488,-1.72559 0,-4.50342 -6.06152,-13.1748 -10.90234,-13.1748 -1.2627,0 -2.14649,0.96826 -2.14649,2.18896 0,1.01026 0.46289,2.23145 0.8418,3.19873 z" /><path
       id="path30"
       style="fill:#231f20;fill-opacity:1;fill-rule:evenodd;stroke:none"
       d="m 334.89258,575.57617 c 0.085,0.29395 0.25195,0.79981 0.25195,1.13574 0,0.25293 -0.16699,0.37891 -0.41992,0.37891 -0.46289,0 -0.7168,-0.75781 -0.88379,-1.09473 -2.0625,-4.208 -5.09473,-3.87207 -9.17578,-3.87207 -0.71582,0 -1.72559,-0.16845 -1.72559,0.8418 0,0.37891 0.20899,1.05225 0.33594,1.43066 L 329,593.04346 c 0.63086,2.02099 0.88281,3.24072 3.7041,3.19922 0.4209,0 1.2627,-0.0845 1.2627,0.54736 0,0.46289 -0.42188,0.50488 -0.79981,0.50488 -1.6416,-0.042 -3.32519,-0.16797 -4.96777,-0.16797 -1.30469,0 -2.6084,0.12598 -3.91406,0.16797 -0.33594,0 -1.30469,0.21045 -1.30469,-0.33691 0,-0.63086 0.58887,-0.75781 1.05176,-0.71533 0.88476,0.12597 2.0625,0.16748 2.0625,-1.09522 0,-0.5459 -0.33692,-1.55664 -0.50391,-2.0625 l -5.43066,-17.71973 c -0.29395,-0.92578 -0.63086,-2.27294 -1.43067,-2.8623 -0.58886,-0.46289 -1.51465,-0.46289 -2.23144,-0.46289 -0.46289,-0.042 -1.09375,-0.042 -1.09375,-0.67334 0,-0.54736 1.7666,-0.29541 2.23047,-0.29541 h 14.35351 c 1.47266,0 1.51563,0 1.93555,1.34766 z" /><path
       id="path32"
       style="fill:#231f20;fill-opacity:1;fill-rule:evenodd;stroke:none"
       d="m 348.95215,595.82129 c 0,0.7998 -0.50684,1.47363 -1.34766,1.47363 -1.22168,0 -2.14746,-1.59961 -2.14746,-2.65185 0,-0.84131 0.42188,-1.59961 1.30469,-1.59961 1.30566,0 2.19043,1.59961 2.19043,2.77783 m -2.98926,-10.05957 c 0.25293,0.75781 0.71582,2.27246 0.71582,3.03076 0,0.92578 -0.2959,1.55713 -1.30566,1.55713 -1.59961,0 -3.8711,-2.0625 -4.92383,-3.07227 -0.33789,-0.29492 -2.10547,-2.14697 -2.10547,-2.69433 0,-0.21094 0.085,-0.33692 0.2959,-0.33692 0.5459,0 2.8623,3.66211 4.33496,3.66211 0.37891,0 0.50488,-0.4209 0.50488,-0.75683 0,-0.33692 -0.2959,-1.05274 -0.37988,-1.38965 l -6.1875,-20.24609 c -0.37891,-1.30469 -0.8418,-3.40918 -2.56738,-3.40918 -1.7666,0 -1.59961,2.60937 -3.3252,2.60937 -0.7998,0 -1.42969,-0.67334 -1.42969,-1.47314 0,-1.59913 1.93555,-2.10401 3.24024,-2.10401 1.85156,0 3.74707,0.92578 5.05078,2.23047 1.68457,1.72559 2.61035,4.33545 3.28418,6.56641 z" /><path
       id="path34"
       style="fill:#231f20;fill-opacity:1;fill-rule:evenodd;stroke:none"
       d="m 365.06641,581.80518 -1.85254,-5.97705 c -0.29297,-1.01026 -0.75586,-2.65137 -0.75586,-3.70411 0,-0.71582 0.25195,-1.55713 1.13574,-1.55713 1.97852,0 4.54492,2.10401 5.7666,3.49366 0.33692,0.3789 2.14551,2.65136 2.14551,3.24121 0,0.16797 -0.125,0.29394 -0.29395,0.29394 -0.21093,0 -0.37793,-0.29394 -0.50488,-0.46289 -0.67285,-1.13672 -2.98828,-4.16699 -4.41992,-4.16699 -0.46289,0 -0.67383,0.46289 -0.67383,0.8418 0,0.50586 0.21094,1.26269 0.37891,1.76855 l 4.08301,13.34229 c 0.085,0.25244 0.25195,0.71533 0.25195,1.01025 0,0.63086 -1.09277,0.4209 -1.42969,0.4209 -1.59961,0 -1.30566,-0.20996 -1.76855,-1.76758 -1.30469,-4.20996 -3.36719,-7.95508 -6.27051,-11.28027 -1.17871,-1.38965 -4.67285,-4.84082 -6.65039,-4.84082 -0.75879,0 -1.13672,0.46289 -1.13672,1.17871 0,0.58887 0.29297,1.47363 0.46289,2.01953 l 3.36621,10.06055 c 0.2959,0.84179 0.63281,1.89453 0.63281,2.77734 0,0.88428 -0.2959,1.85254 -1.34765,1.85254 -1.55664,0 -3.66211,-1.80957 -4.63086,-2.77832 -0.41992,-0.46289 -2.27149,-2.73633 -2.27149,-3.45117 0,-0.16797 0.041,-0.25244 0.20899,-0.25244 0.37988,0 0.75781,0.67334 0.92773,0.92578 0.54688,0.7998 2.44043,3.28369 3.53516,3.28369 0.46289,0 0.58789,-0.33692 0.58789,-0.71582 0,-0.4209 -0.33496,-1.2627 -0.46289,-1.6416 l -3.28223,-9.55469 c -0.33691,-0.96875 -0.7998,-2.39941 -0.7998,-3.40967 0,-1.26269 0.46289,-2.18848 1.81054,-2.18848 2.56641,0 5.42871,2.14698 7.23926,3.78809 2.56641,2.31494 3.78809,4.25098 5.72461,7.02881 z" /><path
       id="path36"
       style="fill:#231f20;fill-opacity:1;fill-rule:evenodd;stroke:none"
       d="m 376.22754,580.37402 c -0.46289,-1.55761 -1.0957,-3.24121 -1.0957,-4.9248 0,-3.3252 2.39941,-4.88233 5.55566,-4.88233 7.11523,0 13.84766,7.07178 13.84766,14.14209 0,2.65235 -1.21875,5.64063 -4.292,5.64063 -4.08398,0 -9.17578,-6.27148 -11.02734,-9.59668 l 5.80762,19.23633 c 0,0.29394 -0.12696,0.41992 -0.37891,0.41992 -0.16699,0 -0.33691,-0.084 -0.41992,-0.16797 -1.47461,-0.92578 -2.65332,-1.05176 -4.33594,-1.05176 -0.4209,0 -1.30566,-0.085 -1.30566,-0.67382 0,-0.50586 1.22168,-0.42139 1.47363,-0.42139 0.67383,0 1.13672,-0.16748 1.13672,-0.96729 0,-0.50586 -0.33691,-1.59961 -0.50586,-2.10547 l -4.45996,-14.64746 m 15.15234,4.33496 c 0,-5.05078 -5.2207,-13.42675 -10.77539,-13.42675 -1.72558,0 -3.11426,0.84179 -3.11426,2.69433 0,3.99805 7.19727,14.4375 11.53125,14.4375 1.93653,0 2.3584,-2.18945 2.3584,-3.70508 z" /><path
       id="path38"
       style="fill:#231f20;fill-opacity:1;fill-rule:evenodd;stroke:none"
       d="m 397.10742,575.91211 c -0.33691,-1.09424 -0.75879,-2.52539 -0.75879,-3.7041 0,-0.96778 0.21094,-1.64112 1.30567,-1.64112 1.76758,0 4.16699,2.44092 5.13379,3.66163 0.42187,0.50488 1.76953,2.23046 1.76953,2.98877 0,0.16845 -0.0439,0.29443 -0.21094,0.29443 -0.33691,0 -0.50488,-0.33594 -0.63184,-0.54688 -0.50488,-0.88427 -2.65234,-3.83105 -3.66211,-3.83105 -0.41992,0 -0.58984,0.37988 -0.58984,0.71582 0,0.58984 0.25391,1.17871 0.42188,1.68359 l 7.19824,23.48731 c 0.041,0.16894 0.25195,0.7998 0.25195,1.01025 0,0.21045 -0.12598,0.37842 -0.33691,0.37842 -0.12598,0 -0.29492,-0.12598 -0.37793,-0.16797 -1.38965,-1.05176 -3.15821,-1.51562 -4.84082,-1.59961 -0.4209,0 -1.26367,0.042 -1.26367,-0.54736 0,-0.29444 0.20996,-0.46289 0.50585,-0.46289 l 0.67383,0.0415 c 0.71485,0.043 1.64063,-0.083 1.64063,-1.05176 0,-0.37841 -0.29492,-1.34668 -0.41992,-1.72558 z" /><path
       id="path40"
       style="fill:#231f20;fill-opacity:1;fill-rule:evenodd;stroke:none"
       d="m 418.65527,595.82129 c 0,0.7998 -0.50488,1.47363 -1.34765,1.47363 -1.21973,0 -2.14551,-1.59961 -2.14551,-2.65185 0,-0.84131 0.41992,-1.59961 1.30469,-1.59961 1.30371,0 2.18847,1.59961 2.18847,2.77783 m -2.98828,-10.05957 c 0.25196,0.75781 0.71485,2.27246 0.71485,3.03076 0,0.92578 -0.29395,1.55713 -1.30371,1.55713 -1.59961,0 -3.87305,-2.0625 -4.92481,-3.07227 -0.33691,-0.29492 -2.10644,-2.14697 -2.10644,-2.69433 0,-0.21094 0.085,-0.33692 0.29589,-0.33692 0.54786,0 2.86231,3.66211 4.33594,3.66211 0.37793,0 0.50391,-0.4209 0.50391,-0.75683 0,-0.33692 -0.29395,-1.05274 -0.37793,-1.38965 l -6.1875,-20.24609 c -0.37891,-1.30469 -0.8418,-3.40918 -2.56836,-3.40918 -1.76758,0 -1.59961,2.60937 -3.32422,2.60937 -0.80078,0 -1.43164,-0.67334 -1.43164,-1.47314 0,-1.59913 1.93652,-2.10401 3.24023,-2.10401 1.85352,0 3.74707,0.92578 5.05078,2.23047 1.68457,1.72559 2.61036,4.33545 3.28418,6.56641 z" /><path
       id="path42"
       style="fill:#231f20;fill-opacity:1;fill-rule:evenodd;stroke:none"
       d="m 436.0752,588.87695 c -0.88477,1.13575 -1.81055,1.47266 -3.24024,1.47266 -3.83203,0 -7.62012,-2.39844 -10.18652,-5.09277 -2.39942,-2.52588 -4.83985,-6.77686 -4.83985,-10.3545 0,-2.0625 0.9668,-4.33545 3.3252,-4.33545 4.96582,0 10.60547,8.03907 12.96387,11.91163 l -2.56836,-8.33399 c -0.21094,-0.71582 -0.46387,-1.55762 -0.46387,-2.35644 0,-0.7168 0.38086,-1.2212 1.13672,-1.2212 1.68457,0 3.95801,1.97803 5.00976,3.11475 0.50391,0.54688 2.23145,2.73584 2.23145,3.49414 0,0.16748 -0.12793,0.33594 -0.29492,0.33594 -0.2959,0 -0.58887,-0.54688 -0.7168,-0.75733 -0.50488,-0.7998 -2.48242,-3.45166 -3.53418,-3.45166 -0.33691,0 -0.42187,0.29395 -0.42187,0.63086 0,0.37989 0.25195,1.05274 0.33691,1.38965 l 4.33594,14.22656 c 0.041,0.16846 0.21094,0.63135 0.21094,0.8418 0,0.58936 -1.17969,0.37891 -1.43262,0.37891 -1.38867,0 -1.30371,-0.21094 -1.72559,-1.51514 l -0.12597,-0.37842 m -0.63184,-1.51562 c 0,-1.93653 -3.45117,-6.73438 -4.62988,-8.20801 -1.47364,-1.85156 -5.21973,-6.35644 -7.78711,-6.35644 -1.34668,0 -1.93653,1.38964 -1.93653,2.56835 0,2.65186 2.23243,6.90284 3.83204,8.92383 1.7666,2.31446 4.75488,5.26074 7.82812,5.26074 1.43164,0 2.69336,-0.63134 2.69336,-2.18847 z" /><path
       id="path44"
       style="fill:#231f20;fill-opacity:1;fill-rule:evenodd;stroke:none"
       d="m 463.35352,584.91992 c 0.33691,0.88379 0.7998,2.10449 0.7998,3.07276 0,1.51513 -1.17773,2.35693 -2.6084,2.35693 -5.43066,0 -10.35547,-7.4082 -12.66992,-11.61719 l -0.085,0.084 1.81055,5.7666 c 0.33691,1.13672 0.71484,2.4834 0.71484,3.7041 0,1.2207 -0.4209,2.0625 -1.72559,2.0625 -1.7666,0 -3.95507,-2.10449 -5.00781,-3.36719 -0.33789,-0.33691 -1.80957,-2.27344 -1.80957,-2.73633 0,-0.20996 0.16699,-0.29394 0.33692,-0.29394 0.25195,0 0.37792,0.25195 0.46289,0.46289 0.5039,0.88379 2.81836,3.70361 3.91406,3.70361 0.62988,0 0.84082,-0.46289 0.84082,-1.01025 0,-0.71533 -0.29395,-1.64111 -0.50391,-2.31494 l -3.74707,-12.24854 c -0.085,-0.21094 -0.25195,-0.75683 -0.25195,-0.96777 0,-0.71582 0.88281,-0.50586 1.30371,-0.50586 1.34766,0 1.34766,0.21094 1.72559,1.43164 1.01074,3.2832 4.25195,8.88086 6.48339,11.5332 1.30372,1.51563 3.95606,4.62989 6.1875,4.62989 0.9668,0 1.47364,-0.54737 1.47364,-1.47315 0,-0.7583 -0.33692,-1.5581 -0.58985,-2.27295 l -2.98828,-7.95508 c -0.50586,-1.30566 -1.13672,-3.07275 -1.13672,-4.5039 0,-1.22071 0.5459,-1.89405 1.81055,-1.89405 1.72461,0 4.25,2.44092 5.34473,3.66163 0.33691,0.33691 1.89355,2.27343 1.89355,2.82031 0,0.16846 -0.16797,0.29443 -0.29394,0.29443 -0.25196,0 -0.42188,-0.25244 -0.50489,-0.42138 -0.71679,-1.05176 -3.07226,-3.99805 -4.41992,-3.99805 -0.50586,0 -0.7998,0.29443 -0.7998,0.8418 0,0.58935 0.42187,1.5996 0.63183,2.14648 l 3.40821,9.00781 z" /><path
       id="path46"
       style="fill:#231f20;fill-opacity:1;fill-rule:evenodd;stroke:none"
       d="m 470.51172,575.95459 c -0.29395,-1.01025 -0.75684,-2.60986 -0.75684,-3.70361 0,-0.96875 0.21094,-1.68409 1.30567,-1.68409 1.76758,0 4.125,2.44092 5.13379,3.70362 0.42187,0.54736 1.76855,2.27295 1.76855,2.98828 0,0.16894 -0.043,0.29492 -0.25195,0.29492 -0.29492,0 -0.46289,-0.29492 -0.59082,-0.54687 -0.50391,-0.8418 -2.65137,-3.83008 -3.70313,-3.83008 -0.37793,0 -0.54785,0.33691 -0.54785,0.75683 0,0.54786 0.21094,1.13672 0.37891,1.68409 l 3.11621,10.10205 c 0.25195,0.75781 0.71484,2.27295 0.71484,3.07275 0,0.92578 -0.2959,1.55713 -1.30566,1.55713 -1.59961,0 -3.91406,-2.0625 -4.9668,-3.07227 -0.33691,-0.33691 -2.0625,-2.18847 -2.0625,-2.73632 0,-0.21045 0.085,-0.33692 0.25391,-0.33692 0.5459,0 2.90429,3.7041 4.33398,3.7041 0.42188,0 0.50586,-0.4209 0.50586,-0.75683 0,-0.37989 -0.25195,-1.09522 -0.33594,-1.43164 l -2.99023,-9.76514 m 8.84082,19.8667 c 0,0.7998 -0.54785,1.47363 -1.38965,1.47363 -1.2207,0 -2.14648,-1.59961 -2.14648,-2.69336 0,-0.7998 0.41992,-1.5581 1.30371,-1.5581 1.30664,0 2.23242,1.59961 2.23242,2.77783 z" /><path
       id="path48"
       style="fill:#e22526;fill-opacity:1;fill-rule:evenodd;stroke:none"
       d="M 241.95557,359.71973 H 360.95801 V 240.71875 H 241.95557 Z" /><path
       id="path50"
       style="fill:#231f20;fill-opacity:1;fill-rule:evenodd;stroke:none"
       d="m 319.44434,414.85742 v -24.06836 h -1.28614 l -0.0381,24.06836 h 1.32422 m -9.87891,2.05371 h 7.94629 v -1.07617 l -8.42578,0.21973 c -0.89258,2.24707 -4.2168,3.89941 -8.14844,3.89941 -3.68457,0 -6.81299,-1.46191 -7.92871,-3.49512 1.0625,2.2295 4.41601,3.8584 8.38965,3.8584 3.70117,0 6.86328,-1.41211 8.16699,-3.40625 m -8.1416,43.16016 c 1.42383,0 2.58691,-1.11816 2.65722,-2.52539 h -0.91406 c -0.19336,1.04492 -1.1084,1.83594 -2.20898,1.83594 -1.05469,0 -1.93653,-0.72461 -2.18115,-1.70215 0.1333,1.34277 1.26709,2.3916 2.64697,2.3916 m 52.15039,-11.65527 h -3.43262 l 0.009,1.11914 2.15918,-0.0205 -0.68555,4.38281 1.9502,-5.48144 m 0.52246,-9.96973 h -1.10156 l -0.006,5.77441 c 0.009,1.51953 -1.04297,2.57325 -2.34375,2.57325 -0.41602,0 -0.80567,-0.1084 -1.14356,-0.29688 0.48438,0.39258 1.10254,0.62695 1.77344,0.62695 1.56152,0 2.82129,-1.26562 2.82129,-2.82617 v -5.85156 m -3.0791,16.82324 c 0,0.28418 0.23144,0.51563 0.51562,0.51563 0.28516,0 0.51563,-0.23145 0.51563,-0.51563 0,-0.28467 -0.23047,-0.51562 -0.51563,-0.51562 -0.28418,0 -0.51562,0.23095 -0.51562,0.51562 m -99.03955,-6.85351 h -3.43213 l 0.009,1.11914 2.15918,-0.0205 -0.68555,4.38281 1.94971,-5.48144 m 0.52197,-9.96973 h -1.10059 l -0.006,5.77441 c 0.01,1.51953 -1.04296,2.57325 -2.34277,2.57325 -0.41553,0 -0.80566,-0.1084 -1.14502,-0.29688 0.48584,0.39258 1.10303,0.62695 1.77539,0.62695 1.56006,0 2.81885,-1.26562 2.81885,-2.82617 v -5.85156 m -3.07617,16.82324 c 0,0.28418 0.23096,0.51563 0.51562,0.51563 0.28516,0 0.51563,-0.23145 0.51563,-0.51563 0,-0.28467 -0.23047,-0.51562 -0.51563,-0.51562 -0.28466,0 -0.51562,0.23095 -0.51562,0.51562 m 94.05566,-33.84082 h -0.97949 v 4.59375 c 0,0.71973 -0.49707,1.21875 -1.1123,1.21875 -0.19629,0 -0.38086,-0.0503 -0.54004,-0.13965 0.27929,0.27735 0.66308,0.44922 1.08789,0.44922 0.85547,0 1.54394,-0.69238 1.54394,-1.54639 v -4.57568 m -1.81347,7.23291 c 0,0.26123 0.21093,0.47412 0.47168,0.47412 0.26367,0 0.4746,-0.21289 0.4746,-0.47412 0,-0.26123 -0.21093,-0.47412 -0.4746,-0.47412 -0.26075,0 -0.47168,0.21289 -0.47168,0.47412 m -5.96875,-7.23291 h -0.98047 v 4.59375 c 0,0.71973 -0.4961,1.21875 -1.11133,1.21875 -0.19727,0 -0.37988,-0.0503 -0.54102,-0.13965 0.2793,0.27735 0.66504,0.44922 1.08985,0.44922 0.85254,0 1.54297,-0.69238 1.54297,-1.54639 v -4.57568 m -1.81543,7.23291 c 0,0.26123 0.21386,0.47412 0.47461,0.47412 0.26074,0 0.4746,-0.21289 0.4746,-0.47412 0,-0.26123 -0.21386,-0.47412 -0.4746,-0.47412 -0.26075,0 -0.47461,0.21289 -0.47461,0.47412 m 5.20898,2.51807 h -0.8584 v 2.17187 c 0,0.62989 -0.43359,1.06543 -0.9707,1.06543 -0.17188,0 -0.33301,-0.0439 -0.47363,-0.12207 0.24511,0.24317 0.58105,0.39258 0.95214,0.39258 0.74707,0 1.35059,-0.60547 1.35059,-1.35156 v -2.15625 m -11.93555,-9.75098 h -0.97949 v 4.59375 c 0,0.71973 -0.49707,1.21875 -1.1123,1.21875 -0.19629,0 -0.38086,-0.0503 -0.54004,-0.13965 0.27929,0.27735 0.66406,0.44922 1.08984,0.44922 0.85352,0 1.54199,-0.69238 1.54199,-1.54639 v -4.57568 m -1.81347,7.23291 c 0,0.26123 0.21093,0.47412 0.47265,0.47412 0.2627,0 0.47364,-0.21289 0.47364,-0.47412 0,-0.26123 -0.21094,-0.47412 -0.47364,-0.47412 -0.26172,0 -0.47265,0.21289 -0.47265,0.47412 m 4.59375,2.51807 h -0.8584 v 2.17187 c 0,0.62989 -0.4336,1.06543 -0.97266,1.06543 -0.16992,0 -0.33105,-0.0439 -0.47168,-0.12207 0.24414,0.24317 0.58203,0.39258 0.95215,0.39258 0.74707,0 1.35059,-0.60547 1.35059,-1.35156 v -2.15625 m -55.667,0 h -0.85644 v 2.17187 c 0,0.62989 -0.43408,1.06543 -0.97266,1.06543 -0.17041,0 -0.33154,-0.0439 -0.47168,-0.12207 0.24414,0.24317 0.58106,0.39258 0.95215,0.39258 0.74658,0 1.34863,-0.60547 1.34863,-1.35156 v -2.15625 m -9.00292,0 h -0.85694 v 2.17187 c 0,0.62989 -0.43359,1.06543 -0.97217,1.06543 -0.17089,0 -0.33203,-0.0439 -0.47216,-0.12207 0.24462,0.24317 0.58056,0.39258 0.95214,0.39258 0.74707,0 1.34913,-0.60547 1.34913,-1.35156 v -2.15625 m -3.53809,-9.75098 h -0.98047 v 4.59375 c 0,0.71973 -0.49609,1.21875 -1.11133,1.21875 -0.19629,0 -0.38037,-0.0503 -0.54004,-0.13965 0.2793,0.27735 0.66407,0.44922 1.08887,0.44922 0.85449,0 1.54297,-0.69238 1.54297,-1.54639 v -4.57568 m -1.81445,7.23291 c 0,0.26123 0.2124,0.47412 0.47363,0.47412 0.26172,0 0.47412,-0.21289 0.47412,-0.47412 0,-0.26123 -0.2124,-0.47412 -0.47412,-0.47412 -0.26123,0 -0.47363,0.21289 -0.47363,0.47412 m 10.25781,-7.23291 h -0.98047 v 4.59375 c 0,0.71973 -0.49609,1.21875 -1.1123,1.21875 -0.19532,0 -0.37989,-0.0503 -0.54004,-0.13965 0.27929,0.27735 0.66455,0.44922 1.08935,0.44922 0.85401,0 1.54346,-0.69238 1.54346,-1.54639 v -4.57568 m -1.81543,7.23291 c 0,0.26123 0.21289,0.47412 0.47412,0.47412 0.26123,0 0.47412,-0.21289 0.47412,-0.47412 0,-0.26123 -0.21289,-0.47412 -0.47412,-0.47412 -0.26123,0 -0.47412,0.21289 -0.47412,0.47412 m 9.5918,-7.23291 h -0.9795 v 4.59375 c 0,0.71973 -0.49707,1.21875 -1.1123,1.21875 -0.19629,0 -0.37988,-0.0503 -0.53955,-0.13965 0.27881,0.27735 0.66357,0.44922 1.08935,0.44922 0.85352,0 1.542,-0.69238 1.542,-1.54639 v -4.57568 m -1.81397,7.23291 c 0,0.26123 0.2124,0.47412 0.47412,0.47412 0.26123,0 0.47363,-0.21289 0.47363,-0.47412 0,-0.26123 -0.2124,-0.47412 -0.47363,-0.47412 -0.26172,0 -0.47412,0.21289 -0.47412,0.47412 M 251.1593,390.8594 h -1.06348 l -0.003,6.77441 c 0.005,0.68262 -0.46875,1.15625 -1.05273,1.15625 -0.30469,0 -0.5791,-0.12891 -0.771,-0.33399 0.26514,0.46875 0.76905,0.78516 1.34619,0.78516 0.85401,0 1.5459,-0.69141 1.5459,-1.5459 l -0.002,-6.83593 m 9.13477,0 h -1.06348 l -0.002,6.77441 c 0.004,0.68262 -0.46973,1.15625 -1.05372,1.15625 -0.30468,0 -0.57812,-0.12891 -0.77148,-0.33399 0.26563,0.46875 0.76953,0.78516 1.34668,0.78516 0.854,0 1.5459,-0.69141 1.5459,-1.5459 l -0.002,-6.83593 m 9.05371,0 h -1.06348 l -0.003,6.77441 c 0.004,0.68262 -0.46875,1.15625 -1.05273,1.15625 -0.30469,0 -0.57862,-0.12891 -0.77198,-0.33399 0.26514,0.46875 0.76905,0.78516 1.34717,0.78516 0.85352,0 1.5459,-0.69141 1.5459,-1.5459 l -0.002,-6.83593 m 8.97119,0 h -1.06348 l -0.003,6.77441 c 0.005,0.68262 -0.46875,1.15625 -1.05224,1.15625 -0.30469,0 -0.57911,-0.12891 -0.77247,-0.33399 0.26612,0.46875 0.77002,0.78516 1.34717,0.78516 0.85401,0 1.54688,-0.69141 1.54688,-1.5459 l -0.003,-6.83593 m 75.27978,0 h -1.06347 l -0.003,6.77441 c 0.006,0.68262 -0.46875,1.15625 -1.05176,1.15625 -0.30469,0 -0.58008,-0.12891 -0.77149,-0.33399 0.26465,0.46875 0.76856,0.78516 1.34571,0.78516 0.85547,0 1.54687,-0.69141 1.54687,-1.5459 l -0.003,-6.83593 m -8.9707,0 h -1.06348 l -0.003,6.77441 c 0.005,0.68262 -0.46875,1.15625 -1.05371,1.15625 -0.30273,0 -0.57812,-0.12891 -0.77148,-0.33399 0.2666,0.46875 0.77051,0.78516 1.34765,0.78516 0.85352,0 1.54688,-0.69141 1.54688,-1.5459 l -0.003,-6.83593 m -9.05273,0 h -1.06348 l -0.003,6.77441 c 0.005,0.68262 -0.46875,1.15625 -1.05371,1.15625 -0.30469,0 -0.57813,-0.12891 -0.77149,-0.33399 0.26661,0.46875 0.76954,0.78516 1.34766,0.78516 0.85254,0 1.54492,-0.69141 1.54492,-1.5459 l -9.7e-4,-6.83593 m -9.13477,0 h -1.06348 l -0.003,6.77441 c 0.005,0.68262 -0.46875,1.15625 -1.05371,1.15625 -0.30468,0 -0.57812,-0.12891 -0.77148,-0.33399 0.2666,0.46875 0.76953,0.78516 1.34765,0.78516 0.85254,0 1.54493,-0.69141 1.54493,-1.5459 l -9.8e-4,-6.83593 m -34.9585,0 h -1.06347 l -0.003,6.77441 c 0.004,0.68262 -0.46875,1.15625 -1.05323,1.15625 -0.30371,0 -0.57861,-0.12891 -0.77148,-0.33399 0.26563,0.46875 0.76953,0.78516 1.34717,0.78516 0.854,0 1.54639,-0.69141 1.54639,-1.5459 l -0.002,-6.83593 m 11.77588,0 -0.006,6.69726 c 0.01,1.58203 -1.08691,2.67774 -2.4375,2.67774 -0.93164,0 -1.74218,-0.51856 -2.15527,-1.28321 0.43262,1.14258 1.54004,1.9541 2.83496,1.9541 1.67285,0 3.0293,-1.35644 3.0293,-3.03125 l -0.004,-7.01464 h -1.26172 m 11.27344,0 h -1.06348 l -0.003,6.77441 c 0.006,0.68262 -0.46875,1.15625 -1.05175,1.15625 -0.30469,0 -0.58008,-0.12891 -0.77246,-0.33399 0.26562,0.46875 0.76953,0.78516 1.34667,0.78516 0.85547,0 1.54688,-0.69141 1.54688,-1.5459 l -0.003,-6.83593 m -22.61133,-24.86329 h -1.15234 l -0.006,13.23829 c 0.01,1.58593 -0.98047,2.68652 -2.20117,2.68652 -0.62061,0 -1.18164,-0.28418 -1.58301,-0.74121 0.49316,0.77344 1.30517,1.27734 2.22266,1.27734 1.50488,0 2.72412,-1.35351 2.72412,-3.02637 l -0.004,-13.43457 m 23.20508,0 h -1.15332 l -0.006,13.23829 c 0.0107,1.58593 -0.97949,2.68652 -2.20019,2.68652 -0.6211,0 -1.18165,-0.28418 -1.58399,-0.74121 0.49414,0.77344 1.30566,1.27734 2.22266,1.27734 1.50586,0 2.72461,-1.35351 2.72461,-3.02637 l -0.004,-13.43457 m -9.9541,0 h -1.44629 l -0.008,13.97364 c 0.0127,2.05078 -1.40821,3.47461 -3.16309,3.47461 -0.79394,0 -1.51758,-0.29004 -2.07519,-0.77051 0.68066,0.89648 1.75878,1.47363 2.9707,1.47363 2.05762,0 3.72754,-1.66894 3.72754,-3.72851 l -0.006,-14.42286 m 2.44043,66.35059 0.0586,0.7207 1.47363,-0.005 -0.39941,2.02393 1.16699,-2.73975 h -2.2998 m 0.53613,3.98828 c 0,0.26758 0.21777,0.48535 0.48633,0.48535 0.2666,0 0.4834,-0.21777 0.4834,-0.48535 0,-0.26758 -0.2168,-0.48437 -0.4834,-0.48437 -0.26856,0 -0.48633,0.21679 -0.48633,0.48437 m -62.80176,-8.94824 h -3.66308 v 1.03711 h 2.39404 l -0.9668,6.71875 2.23584,-7.75586 m 0,-9.52149 h -1.08203 l -9.7e-4,7.10938 -2.78467,1.08789 h 3.86767 v -8.19727 m 115.6416,9.52149 h -3.66308 v 1.03711 h 2.39258 l -0.9668,6.71875 2.2373,-7.75586 m 0,-9.52149 h -1.08398 v 7.10938 l -2.78418,1.08789 h 3.86816 v -8.19727 m -41.6123,9.46875 h -2.72266 v 1.07032 h 1.5293 l -0.75586,4.41113 1.94922,-5.48145 m 0,-8.49023 -1.09375,-0.0195 v 6.04394 l -1.86328,0.55079 h 2.95703 v -6.5752 m -32.97852,8.49023 h -2.72216 v 1.07032 h 1.52881 l -0.75586,4.41113 1.94921,-5.48145 m 0,-8.49023 -1.09472,-0.0195 v 6.04394 l -1.86231,0.55079 h 2.95703 v -6.5752 m 67.29883,-52.00195 -1.11035,-0.002 v 4.2793 l -1.9834,0.38086 h 3.09375 v -4.6582 m -9.04394,0 -1.11231,-0.002 0.002,4.2793 -1.9834,0.38086 h 3.09375 v -4.6582 m -9,0 -1.11231,-0.002 0.002,4.2793 -1.98438,0.38086 h 3.09473 v -4.6582 m -9.24707,0 -1.11231,-0.002 v 4.2793 l -1.9834,0.38086 h 3.09571 v -4.6582 m -48.01172,0 -1.11133,-0.002 4.9e-4,4.2793 -1.98389,0.38086 h 3.09473 v -4.6582 m -9.04395,0 -1.11133,-0.002 4.9e-4,4.2793 -1.98388,0.38086 h 3.09472 v -4.6582 m -9.00049,0 -1.11181,-0.002 9.7e-4,4.2793 -1.98339,0.38086 h 3.09423 v -4.6582 m -9.24658,0 -1.1123,-0.002 9.7e-4,4.2793 -1.98437,0.38086 h 3.0957 v -4.6582 m 102.59375,10.14843 -1.11035,-0.003 v 5.8545 l -1.9834,0.38086 h 3.09375 v -6.23243 m -9.04394,0 -1.11231,-0.003 0.002,5.8545 -1.9834,0.38086 h 3.09375 v -6.23243 m -9,0 -1.11231,-0.003 0.002,5.8545 -1.98438,0.38086 h 3.09473 v -6.23243 m -9.24707,0 -1.11231,-0.003 v 5.8545 l -1.9834,0.38086 h 3.09571 v -6.23243 m -48.01172,0 -1.11133,-0.003 4.9e-4,5.8545 -1.98389,0.38086 h 3.09473 v -6.23243 m -9.04395,0 -1.11133,-0.003 4.9e-4,5.8545 -1.98388,0.38086 h 3.09472 v -6.23243 m -9.00049,0 -1.11181,-0.003 9.7e-4,5.8545 -1.98339,0.38086 h 3.09423 v -6.23243 m -9.24658,0 -1.1123,-0.003 9.7e-4,5.8545 -1.98437,0.38086 h 3.0957 v -6.23243 m 102.59375,27.89649 -1.11035,-0.003 v 5.85449 l -1.9834,0.37988 h 3.09375 v -6.23144 m -9.04394,0 -1.11231,-0.003 0.002,5.85449 -1.9834,0.37988 h 3.09375 v -6.23144 m -9,0 -1.11231,-0.003 0.002,5.85449 -1.98438,0.37988 h 3.09473 v -6.23144 m -9.24707,0 -1.11231,-0.003 v 5.85449 l -1.9834,0.37988 h 3.09571 v -6.23144 m -11.89942,0 -1.11328,-0.003 9.8e-4,5.85449 -1.98438,0.37988 h 3.09668 v -6.23144 m -23.12695,0 -1.11182,-0.003 4.9e-4,5.85449 -1.9834,0.37988 h 3.09473 v -6.23144 m -12.98535,0 -1.11133,-0.003 4.9e-4,5.85449 -1.98389,0.37988 h 3.09473 v -6.23144 m -9.04395,0 -1.11133,-0.003 4.9e-4,5.85449 -1.98388,0.37988 h 3.09472 v -6.23144 m -9.00049,0 -1.11181,-0.003 9.7e-4,5.85449 -1.98339,0.37988 h 3.09423 v -6.23144 m 97.28467,-18.55078 -37.12207,1.29883 h 37.09278 l 0.0293,-1.29883 m -110.125,38.96777 3.50684,11.5166 h 35.66553 v -0.83105 H 251.55388 L 247.507,425.30216 m -1.25732,-37.66894 h 35.1709 v -0.88868 l -35.1709,0.88868 m 35.79053,-21.63868 -9.8e-4,19.29102 h 1.30176 v -19.29102 h -1.30078 m -35.79053,50.1211 h 35.1709 v -0.89649 l -35.1709,0.89649 m 35.77441,-25.26074 -4.9e-4,23.00097 h 1.31739 v -22.99804 l -1.3169,-0.003 m -30.92334,14.03027 -1.1123,-0.003 9.7e-4,5.85449 -1.98437,0.37988 h 3.0957 v -6.23144 m 41.86328,27.45996 0.0606,0.7207 1.47119,-0.005 -0.39892,2.02393 1.16797,-2.73975 h -2.30079 m 0.49414,3.98828 c 0,0.26758 0.2168,0.48535 0.48389,0.48535 0.26807,0 0.48486,-0.21777 0.48486,-0.48535 0,-0.26758 -0.21679,-0.48437 -0.48486,-0.48437 -0.26709,0 -0.48389,0.21679 -0.48389,0.48437 m 6.51954,-0.82031 0.17968,0.87842 1.87207,-0.005 -0.6123,2.61279 1.48633,-3.48584 h -2.92578 m 0.88574,5.07373 c 0,0.30713 0.24902,0.55517 0.55566,0.55517 0.30567,0 0.55469,-0.24804 0.55469,-0.55517 0,-0.30713 -0.24902,-0.55518 -0.55469,-0.55518 -0.30664,0 -0.55566,0.24805 -0.55566,0.55518 m -6.93018,-11.3208 7.48975,4.82519 7.72656,-4.82519 v -7.72754 h -1.35156 v 7.46435 l -6.375,4.60596 -7.48975,-4.34277 m 60.66651,-3.33594 -3.58301,10.13672 -34.19824,0.84033 h 35.05566 l 3.96777,-10.97412 -1.24218,-0.003 m -69.75,-38.30957 h 32.66113 v -1.10352 l -32.66113,1.10352 m 34.59375,-21.62598 h -1.33106 v 19.29102 h 1.33106 v -19.29102 m -77.55176,24.86329 v 23.55273 h 0.7373 v -23.55273 h -0.7373 m 48.50293,52.70263 h 20.82519 l 4.00977,-16.25732 -1.10742,0.0137 -3.91895,15.53223 -19.80859,0.71142 m 7.00439,5.98779 h 7.7251 l 5.84375,-4.69726 h -1.54395 l -5.09277,4.15332 -6.93213,0.54394 m 3.65479,11.79493 v 21.1875 h 0.73828 v -21.1875 h -0.73828 m 2.73633,-10.51953 0.003,4.46191 -5.87842,1.07178 h 6.98291 l 0.003,-5.53369 h -1.11035 m -5.98536,-22.53223 3.60938,2.65332 2.58887,-1.73828 c 0.74609,-0.58692 1.2666,-1.40235 1.2666,-2.42383 v -4.04102 h -1.10742 v 4.05372 c 0,0.87402 -0.44629,1.57177 -1.08692,2.07421 l -2.21484,1.48682 -3.05567,-2.06494 m 0.92188,-15.60156 c 0.38769,0.5166 1.47168,1.27148 2.75195,1.27148 1.60254,0 2.90137,-1.18262 2.90137,-1.59961 l 0.01,-7.44629 h -1.35254 l -0.007,7.00489 c 0,0.37109 -0.94531,1.41992 -2.36719,1.41992 -0.77246,0 -1.46386,-0.30762 -1.93652,-0.65039 m 25.16894,3.42578 h 35.2168 v -1.04883 l -35.2168,1.04883 m 35.73731,-28.41309 v 26.15332 h 1.35351 v -26.15332 h -1.35351 m 1.35351,-24.13183 -40.93652,0.003 v 1.0996 h 39.58399 l -9.8e-4,20.61231 h 1.35351 v -21.71484 m -43.48535,0.003 h -1.64355 v 1.0996 h 1.64355 v -1.0996 m -4.19238,0 h -7.56738 v 1.0996 h 7.56738 v -1.0996 m -10.11621,0 -10.61621,9.7e-4 v 1.09863 h 10.61621 v -1.0996 m -13.16504,9.7e-4 h -6.04394 v 1.09863 h 6.04394 v -1.09863 m -8.59228,0.002 -39.48291,9.7e-4 v 22.90918 h 0.7373 V 364.6735 h 38.74561 z" /></g></svg>