<?xml version="1.0" encoding="UTF-8" standalone="no"?>
<svg
   xmlns:dc="http://purl.org/dc/elements/1.1/"
   xmlns:cc="http://creativecommons.org/ns#"
   xmlns:rdf="http://www.w3.org/1999/02/22-rdf-syntax-ns#"
   xmlns:svg="http://www.w3.org/2000/svg"
   xmlns="http://www.w3.org/2000/svg"
   xmlns:sodipodi="http://sodipodi.sourceforge.net/DTD/sodipodi-0.dtd"
   xmlns:inkscape="http://www.inkscape.org/namespaces/inkscape"
   width="204"
   height="72"
   viewBox="0 0 204 72"
   version="1.1"
   id="svg29"
   sodipodi:docname="zala_logo_small.svg"
   inkscape:version="0.92.1 r15371">
  <metadata
     id="metadata33">
    <rdf:RDF>
      <cc:Work
         rdf:about="">
        <dc:format>image/svg+xml</dc:format>
        <dc:type
           rdf:resource="http://purl.org/dc/dcmitype/StillImage" />
        <dc:title>ZALA LOGO Copy</dc:title>
      </cc:Work>
    </rdf:RDF>
  </metadata>
  <sodipodi:namedview
     pagecolor="#ffffff"
     bordercolor="#666666"
     borderopacity="1"
     objecttolerance="10"
     gridtolerance="10"
     guidetolerance="10"
     inkscape:pageopacity="0"
     inkscape:pageshadow="2"
     inkscape:window-width="1280"
     inkscape:window-height="1002"
     id="namedview31"
     showgrid="false"
     inkscape:zoom="3.8045977"
     inkscape:cx="94.746892"
     inkscape:cy="16"
     inkscape:window-x="-8"
     inkscape:window-y="-8"
     inkscape:window-maximized="1"
     inkscape:current-layer="svg29" />
  <!-- Generator: Sketch 42 (36781) - http://www.bohemiancoding.com/sketch -->
  <title
     id="title2">ZALA LOGO Copy</title>
  <desc
     id="desc4">Created with Sketch.</desc>
  <defs
     id="defs6" />
  <g
     id="Landing-new"
     transform="matrix(2.3440377,0,0,2.3440377,0.26278859,-1.148423)"
     style="fill:none;fill-rule:evenodd;stroke:none;stroke-width:1">
    <g
       id="1.1-Landing-"
       transform="translate(-990,-1360)">
      <g
         id="footer"
         transform="translate(0,1350)">
        <g
           id="ZALA-LOGO-Copy"
           transform="translate(990,10.499188)">
          <path
             d="m 62.302913,30.359831 c -1.890724,-1.077346 -1.862487,-2.600938 -1.824329,-4.529827 0.0034,-0.273642 0.0095,-25.82988918519 0.0095,-25.82988918519 H 60.193163 C 60.014203,0.20869506 59.792124,0.35833704 59.542189,0.47583086 59.540282,4.1617691 59.533795,26.677337 59.53036,26.936053 c 0.05953,2.046 1.040948,2.838988 2.058237,3.461667 v 0.305024 h 0.766593 v -0.31153 z"
             id="Fill-1"
             inkscape:connector-curvature="0"
             style="fill:#e7b4d2" />
          <polygon
             id="Fill-3"
             points="10.248562,26.259909 11.594772,26.259909 29.497312,1.0477235 29.497312,0.75839012 28.163693,0.75839012 28.163693,1.0477235 27.934746,1.3500691 "
             style="fill:#e7b4d2" />
          <path
             d="m 26.278541,25.313146 -2.63404,5.38979 h 0.889461 l 2.96525,-6.068346 h -0.283895 c -0.314039,0.257951 -0.624263,0.476864 -0.936776,0.678556"
             id="Fill-5"
             inkscape:connector-curvature="0"
             style="fill:#e7b4d2" />
          <path
             d="m 36.335779,20.448825 c -1.568289,0.445481 -2.496671,1.068543 -2.496671,2.770864 0,0.03215 0.14996,2.923568 2.968303,3.488839 -1.652237,-0.985876 -2.019698,-2.86616 -2.019698,-3.488839 0,-1.467333 0.623119,-2.268741 1.548066,-2.770864"
             id="Fill-7"
             inkscape:connector-curvature="0"
             style="fill:#e7b4d2" />
          <path
             d="m 47.960162,13.668512 0.0023,0.147346 v 8.153765 c 0,3.408852 0.463237,4.561593 2.237961,4.79505 -1.028355,-0.742087 -1.289737,-2.256877 -1.289737,-4.79505 v -8.153765 c -0.01068,-1.35137 0.121724,-5.3182222 -4.122961,-7.0308765 -0.275118,-0.110605 -0.555197,-0.2005432 -0.838329,-0.2782346 3.978343,1.8688025 4.006198,5.6890741 4.010777,7.1617651"
             id="Fill-9"
             inkscape:connector-curvature="0"
             style="fill:#e7b4d2" />
          <path
             d="m 43.163218,26.381711 c 0.0057,0.0403 0.0092,0.07927 0.01626,0.120014 l 0.08392,-0.166957 c -0.03339,0.0155 -0.06679,0.03144 -0.100182,0.04694"
             id="Fill-11"
             inkscape:connector-curvature="0"
             style="fill:#e7b4d2" />
          <path
             d="m 52.20931,27.322022 -0.110276,0.224654 -1.648039,3.297482 c 0.2755,-0.0038 0.559395,-0.01837 0.85321,-0.04325 h 0.05838 l 1.738474,-3.48616 c -0.323198,0.01875 -0.613198,0.01875 -0.891751,0.0073"
             id="Fill-13"
             inkscape:connector-curvature="0"
             style="fill:#e7b4d2" />
          <path
             d="m 42.963843,26.909416 -1.557223,3.14937 c 0.523908,-0.120555 0.835658,-0.220444 0.835658,-0.220444 l 1.037513,-1.976346 c -0.121724,-0.337173 -0.257184,-0.581728 -0.315948,-0.95258"
             id="Fill-15"
             inkscape:connector-curvature="0"
             style="fill:#e7b4d2" />
          <path
             d="m 70.064153,20.448825 c -1.567527,0.445481 -2.495145,1.068543 -2.495145,2.770864 0,0.03215 0.148053,2.92242 2.967921,3.488839 -1.651474,-0.986642 -2.020842,-2.86616 -2.020842,-3.488839 0,-1.467333 0.623881,-2.268741 1.548066,-2.770864"
             id="Fill-17"
             inkscape:connector-curvature="0"
             style="fill:#e7b4d2" />
          <path
             d="m 81.688154,13.668512 0.0019,0.147346 v 8.153765 c 0,3.408852 0.463618,4.561593 2.24025,4.79505 -1.029119,-0.742087 -1.29279,-2.256877 -1.29279,-4.79505 v -8.153765 c -0.0095,-1.35137 0.124013,-5.3182222 -4.120671,-7.0308765 -0.2755,-0.110605 -0.554816,-0.2005432 -0.837565,-0.2782346 3.978342,1.8688025 4.005052,5.6890741 4.008868,7.1617651"
             id="Fill-19"
             inkscape:connector-curvature="0"
             style="fill:#e7b4d2" />
          <path
             d="m 85.940317,27.322022 -0.11371,0.224654 -1.645369,3.297482 c 0.275119,-0.0038 0.559395,-0.01837 0.853211,-0.04325 h 0.05609 l 1.738092,-3.48616 c -0.323579,0.01875 -0.610908,0.01875 -0.888316,0.0073"
             id="Fill-21"
             inkscape:connector-curvature="0"
             style="fill:#e7b4d2" />
          <path
             d="m 76.695575,26.909416 -1.559513,3.14937 c 0.523145,-0.120555 0.835658,-0.220444 0.835658,-0.220444 l 1.036368,-1.976346 c -0.122487,-0.337173 -0.257566,-0.581728 -0.312513,-0.95258"
             id="Fill-23"
             inkscape:connector-curvature="0"
             style="fill:#e7b4d2" />
          <path
             d="m 76.892355,26.381711 c 0.007,0.0403 0.01011,0.07927 0.01494,0.120014 l 0.08392,-0.166957 c -0.03208,0.0155 -0.06591,0.03144 -0.09886,0.04694"
             id="Fill-25"
             inkscape:connector-curvature="0"
             style="fill:#e7b4d2" />
          <path
             d="m 60.543338,30.359831 c -1.88996,-1.077346 -1.859816,-2.600938 -1.821276,-4.529827 0.0011,-0.273642 0.01107,-25.82988918519 0.01107,-25.82988918519 H 58.435496 C 57.820391,0.71579383 56.729075,0.80802839 55.62097,0.80802839 H 52.083351 V 1.1176457 l 0.04884,0.027173 c 1.873935,1.0930371 1.850658,2.330358 1.822421,4.2902469 -0.0031,0.2537408 -0.0031,20.0688644 0,20.3168644 0.02824,1.967543 0.05151,3.517926 -1.822421,4.607901 l -0.04884,0.03138 v 0.31153 h 8.514553 v -0.31153 z"
             id="Fill-27"
             inkscape:connector-curvature="0"
             style="fill:#2c3393" />
          <path
             d="M 27.221499,0.75839012 H 6.2396171 L 3.2392618,6.8902667 H 3.5288803 C 5.7843934,5.0471062 6.2186303,4.7524148 9.1518276,4.7524148 H 18.216999 L 3.8157895e-5,30.410464 v 0.292395 H 22.776867 l 2.965632,-6.068345 h -0.28504 c -2.25246,1.843925 -4.385868,2.143592 -7.420566,2.143592 H 8.9537882 L 27.221499,1.0477235 Z"
             id="Fill-29"
             inkscape:connector-curvature="0"
             style="fill:#2c3393" />
          <path
             d="M 47.152664,21.969585 V 13.81582 c -0.01068,-1.351371 0.120579,-5.3182225 -4.121815,-7.0308768 -3.828,-1.5431111 -8.817908,0.1461975 -8.817908,0.1461975 l -2.077698,4.2450863 c 1.939566,-0.890197 3.716198,-1.6012838 5.933172,-1.6012838 1.901407,0 4.735013,0.8350868 4.735013,3.1332958 0,2.30663 -2.552,2.334568 -5.748487,2.940408 -4.269487,0.807913 -9.315869,2.212481 -9.315869,7.624469 0,4.263457 3.638737,7.51042 8.392066,7.517691 2.48904,0 4.354579,-0.621913 4.354579,-0.621913 l 1.884619,-3.875 c 0,0 -2.021224,1.034864 -4.852922,1.034864 -3.799763,0 -4.488894,-3.250407 -4.488894,-4.109222 0,-2.937346 2.490947,-3.197976 4.901,-3.752914 l 0.285039,-0.06468 c 1.570579,-0.380037 3.186566,-0.771938 4.588869,-1.470012 v 7.51195 c 0,3.326951 2.273829,5.780544 6.742881,5.35726 h 0.05838 l 1.736566,-3.486543 c -3.508237,0.197481 -4.188593,-1.238852 -4.188593,-5.345013"
             id="Fill-31"
             inkscape:connector-curvature="0"
             style="fill:#2c3393" />
          <path
             d="M 80.882908,21.969585 V 13.81582 C 80.87146,12.464449 81.003487,8.4975975 76.760329,6.7849432 72.93271,5.2418321 67.943947,6.9311407 67.943947,6.9311407 l -2.081513,4.2450863 c 1.940329,-0.890197 3.718487,-1.6012838 5.938513,-1.6012838 1.898737,0 4.731579,0.8350868 4.731579,3.1332958 0,2.30663 -2.551618,2.334568 -5.748105,2.940408 -4.267961,0.807913 -9.31625,2.212481 -9.31625,7.624469 0,4.263457 3.638355,7.51042 8.391684,7.517691 2.490184,0 4.356105,-0.621913 4.356105,-0.621913 l 1.886527,-3.875 c 0,0 -2.025421,1.034864 -4.854829,1.034864 -3.802434,0 -4.488132,-3.250407 -4.488132,-4.109222 0,-2.937346 2.490948,-3.197976 4.899474,-3.752914 l 0.285803,-0.06468 c 1.570579,-0.380037 3.186184,-0.771938 4.587723,-1.470012 v 7.51195 c 0,3.326951 2.273829,5.780544 6.743264,5.35726 h 0.05762 l 1.73809,-3.486542 c -3.507474,0.197481 -4.188592,-1.238852 -4.188592,-5.345013"
             id="Fill-33"
             inkscape:connector-curvature="0"
             style="fill:#2c3393" />
        </g>
      </g>
    </g>
  </g>
</svg>
